<svg xmlns="http://www.w3.org/2000/svg" width="15.852" height="19.51" viewBox="0 0 15.852 19.51">
  <g id="delete" transform="translate(-48)">
    <path id="Path_17" data-name="Path 17" d="M62.327,2.439H58.974v-.61A1.829,1.829,0,0,0,57.145,0H54.706a1.829,1.829,0,0,0-1.829,1.829v.61H49.524A1.524,1.524,0,0,0,48,3.963V5.182a.61.61,0,0,0,.61.61H63.242a.61.61,0,0,0,.61-.61V3.963A1.524,1.524,0,0,0,62.327,2.439ZM54.1,1.829a.61.61,0,0,1,.61-.61h2.439a.61.61,0,0,1,.61.61v.61H54.1Z" fill="#fff"/>
    <path id="Path_18" data-name="Path 18" d="M73.555,184a.19.19,0,0,0-.19.2l.5,10.557a1.827,1.827,0,0,0,1.827,1.742h9.259a1.827,1.827,0,0,0,1.827-1.742l.5-10.557a.191.191,0,0,0-.19-.2Zm9.207,1.524a.61.61,0,0,1,1.219,0v7.926a.61.61,0,1,1-1.219,0Zm-3.048,0a.61.61,0,0,1,1.219,0v7.926a.61.61,0,1,1-1.219,0Zm-3.048,0a.61.61,0,0,1,1.219,0v7.926a.61.61,0,1,1-1.219,0Z" transform="translate(-24.398 -176.989)" fill="#fff"/>
  </g>
</svg>
